<?xml version="1.0" encoding="utf-8"?>
<!-- Generator: Adobe Illustrator 19.2.1, SVG Export Plug-In . SVG Version: 6.00 Build 0)  -->
<svg version="1.0" id="Lager_1" xmlns="http://www.w3.org/2000/svg" xmlns:xlink="http://www.w3.org/1999/xlink" x="0px" y="0px"
	 viewBox="0 0 550 550" style="enable-background:new 0 0 550 550;" xml:space="preserve">
<style type="text/css">
	.st0{fill:#FFFFFF;}
	.st1{fill:#79B729;}
	.st2{fill-rule:evenodd;clip-rule:evenodd;fill:#79B729;}
</style>
<path class="st0" d="M329.4,285.3l-5.2,1l3.3-15.7c1-4.9-3.9-3.7-3.9-3.7l-8.2,1.6c-5.8-25.4-28.6-44.4-55.7-44.4
	c-24.3,0-45,15.1-53.3,36.5c-1.1,0-2.3,0.1-3.5,0.4c-4.4,0.8-8.2,3.1-10.8,6.5c-2.3,2.9-3.4,6.3-3.4,9.9c0,2,0.4,3.7,1.1,5.1
	l-4.1,7.3c0,0-2.6,4.4,1.3,6.7c3.1,2.3,6.7,3.5,10.7,3.5c1.3,0,2.6-0.1,3.9-0.4c1.3-0.2,2.5-0.6,3.6-1.1c7.3,23.2,29,40,54.6,40
	c22.4,0,41.9-12.9,51.2-31.8l15.4-3c0,0,3.2-0.3,4-3.8l2.4-11.2C333.5,284.5,329.4,285.3,329.4,285.3z"/>
<g>
	<path class="st1" d="M191.6,292.4c-0.5-0.2-0.7-0.8-0.4-1.3l2.9-5.2c0.3-0.5,0.9-0.7,1.4-0.4c0,0,4,2,6.1,1.6
		c1.1-0.2,1.8-0.8,1.8-1.7c0-0.8-0.5-1.1-3.2-2c-3.8-1.2-5.8-2.8-5.8-6.5c0-2.5,0.8-4.8,2.3-6.7c1.8-2.3,4.4-3.9,7.7-4.6
		c3.7-0.7,8.5,1.4,8.5,1.4c0.5,0.2,0.7,0.8,0.4,1.3l-3,5c-0.3,0.5-0.9,0.7-1.4,0.4c0,0-2.8-1.4-5-1c-1.1,0.2-1.8,0.8-1.8,1.6
		s0.5,1,3.4,2c3.4,1.1,5.7,2.6,5.7,6.5c0,2.5-0.8,4.9-2.4,6.9c-1.7,2.2-4.4,3.8-7.7,4.5C197,295,191.6,292.4,191.6,292.4z"/>
	<path class="st1" d="M211.9,283.6c0-1.7,0.3-3.6,0.3-3.6c0.1-0.5,0.3-1.4,0.4-2l2.7-13c0.1-0.5,0.6-1.1,1.2-1.2l5.8-1.1
		c0.5-0.1,0.9,0.3,0.8,0.8l-2.8,13.7c-0.1,0.5-0.3,1.4-0.4,2c0,0-0.1,0.8-0.1,1.4c0,1.7,0.9,2.5,2.6,2.1c0.8-0.2,1.6-0.6,2.1-1.3
		c0.6-0.8,1.1-2.5,1.1-2.5c0.2-0.5,0.4-1.4,0.5-1.9l3-14.7c0.1-0.5,0.6-1.1,1.2-1.2l5.7-1.1c0.5-0.1,0.9,0.3,0.8,0.8l-3.2,15.6
		c-0.1,0.5-0.3,1.4-0.5,1.9c0,0-1.5,5-3.1,7.1c-1.8,2.3-4.5,4.1-8.5,4.8C215.3,291.4,212,288.8,211.9,283.6z"/>
	<path class="st1" d="M238,260.6c0.1-0.5,0.6-1.1,1.2-1.2l5.3-1c0.5-0.1,1.4-0.2,2-0.2c0,0,5.5-0.3,7.2,1.1c1.3,1.1,2,2.8,2,5
		c0,3-0.8,6-2.7,8.4c-2,2.7-8,4.8-8,4.8c-0.5,0.2-1.4,0.4-1.9,0.5l-0.4,0.1c-0.5,0.1-1.1,0.6-1.2,1.2l-1.2,5.8
		c-0.1,0.5-0.6,1.1-1.2,1.2l-5.7,1.1c-0.5,0.1-0.9-0.3-0.8-0.8L238,260.6z M246.3,265c-0.5,0-1.2,0.1-1.5,0.1
		c-0.3,0.1-0.6,0.5-0.7,1.1l-1,4.7c-0.1,0.5,0,0.9,0.3,0.9c0.3-0.1,0.9-0.2,1.4-0.4c0,0,1.4-0.5,2.1-1.4c0.7-0.9,1-2.1,1-3
		c0-0.8-0.3-1.3-0.6-1.6C246.9,264.9,246.3,265,246.3,265z"/>
	<path class="st1" d="M259,256.8c0.1-0.5,0.6-1.1,1.2-1.2l16.2-3.1c0.5-0.1,0.9,0.3,0.8,0.8l-1.2,5.4c-0.1,0.5-0.7,1.1-1.2,1.2
		l-8.7,1.7c-0.5,0.1-1.1,0.6-1.2,1.2l-0.3,1.2c-0.1,0.5,0.2,0.9,0.8,0.8l7.9-1.5c0.5-0.1,0.9,0.3,0.8,0.8l-1,4.8
		c-0.1,0.5-0.6,1.1-1.2,1.2l-7.9,1.5c-0.5,0.1-1.1,0.6-1.2,1.2l-0.3,1.4c-0.1,0.5,0.2,0.9,0.8,0.8l8.8-1.7c0.5-0.1,0.9,0.3,0.8,0.8
		l-1.1,5.4c-0.1,0.5-0.6,1.1-1.2,1.2l-16.4,3.2c-0.5,0.1-0.9-0.3-0.8-0.8L259,256.8z"/>
	<path class="st1" d="M283.8,271c-0.2-0.5-0.5-0.9-0.6-0.9c-0.2,0-0.8,0.2-0.9,0.2s-0.3,0.5-0.4,1l-1.3,6.2
		c-0.1,0.5-0.6,1.1-1.2,1.2l-5.7,1.1c-0.5,0.1-0.9-0.3-0.8-0.8l5.5-26.1c0.1-0.5,0.6-1.1,1.2-1.2l6-1.2c0.5-0.1,1.4-0.2,2-0.2
		c0,0,5.9-0.3,7.5,1.1c1.3,1.1,1.9,2.9,1.9,5c0,2.8-1.9,6.6-1.9,6.6c-0.3,0.5-0.8,1.2-1.1,1.6l-2.2,1.8c-0.5,0.3-0.7,1-0.5,1.5
		l2.3,6.9c0.2,0.5-0.1,1-0.7,1.1l-6.2,1.2c-0.5,0.1-1.1-0.2-1.3-0.8L283.8,271z M284.5,263.8c0.5-0.1,1.4-0.3,1.9-0.5
		c0,0,1.4-0.5,2-1.3c0.6-0.8,0.9-1.9,0.9-2.8c0-0.7-0.2-1.1-0.6-1.5c-0.4-0.3-1.1-0.3-1.1-0.3c-0.5,0-1.4,0.1-2,0.2
		c-0.5,0.1-1,0.6-1.2,1.2l-0.9,4.2C283.6,263.6,283.9,263.9,284.5,263.8L284.5,263.8z"/>
	<path class="st1" d="M253.1,286.3c0.1-0.5,0.6-1.1,1.2-1.2l15.8-3c0.5-0.1,0.9,0.3,0.8,0.8l-1.2,5.6c-0.1,0.5-0.6,1.1-1.2,1.2
		l-8.2,1.6c-0.5,0.1-1.1,0.6-1.2,1.2l-0.4,1.7c-0.1,0.5,0.2,0.9,0.8,0.8l7.4-1.4c0.5-0.1,0.9,0.3,0.8,0.8l-1.1,5.1
		c-0.1,0.5-0.6,1.1-1.2,1.2L258,302c-0.5,0.1-1.1,0.6-1.2,1.2l-1.6,7.7c-0.1,0.5-0.6,1.1-1.2,1.2l-5.7,1.1c-0.5,0.1-0.9-0.3-0.8-0.8
		L253.1,286.3z"/>
	<path class="st1" d="M269.1,301.3c0-1.7,0.3-3.6,0.3-3.6c0.1-0.5,0.3-1.4,0.4-2l2.7-13c0.1-0.5,0.6-1.1,1.2-1.2l5.8-1.1
		c0.5-0.1,0.9,0.3,0.8,0.8l-2.8,13.7c-0.1,0.5-0.3,1.4-0.4,2c0,0-0.1,0.8-0.1,1.4c0,1.7,0.9,2.5,2.6,2.1c0.8-0.2,1.6-0.6,2.1-1.3
		c0.6-0.8,1.1-2.5,1.1-2.5c0.2-0.5,0.4-1.4,0.5-1.9l3-14.7c0.1-0.5,0.6-1.1,1.2-1.2l5.7-1.1c0.5-0.1,0.9,0.3,0.8,0.8l-3.2,15.6
		c-0.1,0.5-0.3,1.4-0.5,1.9c0,0-1.5,5-3.1,7.1c-1.8,2.3-4.5,4.1-8.5,4.8C272.4,309.2,269.1,306.5,269.1,301.3z"/>
	<path class="st1" d="M295.1,278.4c0.1-0.5,0.6-1.1,1.2-1.2l16.2-3.1c0.5-0.1,0.9,0.3,0.8,0.8l-1.2,5.4c-0.1,0.5-0.7,1.1-1.2,1.2
		l-8.7,1.7c-0.5,0.1-1.1,0.6-1.2,1.2l-0.3,1.2c-0.1,0.5,0.2,0.9,0.8,0.8l7.9-1.5c0.5-0.1,0.9,0.3,0.8,0.8l-1,4.8
		c-0.1,0.5-0.6,1.1-1.2,1.2l-7.9,1.5c-0.5,0.1-1.1,0.6-1.2,1.2l-0.3,1.4c-0.1,0.5,0.2,0.9,0.8,0.8l8.8-1.7c0.5-0.1,0.9,0.3,0.8,0.8
		l-1.1,5.4c-0.1,0.5-0.6,1.1-1.2,1.2l-16.4,3.2c-0.5,0.1-0.9-0.3-0.8-0.8L295.1,278.4z"/>
	<path class="st1" d="M314.7,274.6c0.1-0.5,0.6-1.1,1.2-1.2l5.7-1.1c0.5-0.1,0.9,0.3,0.8,0.8l-3.8,18.4c-0.1,0.5,0.2,0.9,0.8,0.8
		l7.3-1.4c0.5-0.1,0.9,0.3,0.8,0.8l-1.2,5.7c-0.1,0.5-0.7,1.1-1.2,1.2l-14.9,2.9c-0.5,0.1-0.9-0.3-0.8-0.8L314.7,274.6z"/>
	<path class="st2" d="M248.4,294.1c-1.8-1.9-5.3-4-8.3-4.2c-4.2-0.3-8.2,1.7-11.4,3.5c-6.8,3.9-13.5,13.2-13.5,13.2s-1.3,2,1.4,0.8
		c1.8-0.8,3.9-0.8,6.3-0.5l11.5,1.5c4.8,0.6,9-2.6,12.5-6.1l4-3.9c0.8-0.2,1.6-0.4,2.5-0.7h0c-0.4-0.5-0.7-0.9-1.1-1.4
		c-1.8,0.1-4.4,0.2-7.4,0.5c-5.3,2.9-8.5,7.4-8.5,7.4c1.2-3.2,3.7-5.7,5.2-7c-2.6,0.3-6.2,0.9-8.9,1.5c-2.4,1.1-4.9,4.9-4.9,4.9
		c0.9-2.5,1.8-3.5,2.6-4.2c-3.9,1-6.5,2.1-9.5,4C220.9,303.4,228.7,294.6,248.4,294.1z"/>
</g>
</svg>
