<?xml version="1.0" encoding="utf-8"?>
<!-- Generator: Adobe Illustrator 19.1.0, SVG Export Plug-In . SVG Version: 6.00 Build 0)  -->
<svg version="1.0" id="Lager_1" xmlns="http://www.w3.org/2000/svg" xmlns:xlink="http://www.w3.org/1999/xlink" x="0px" y="0px"
	 viewBox="0 0 91.1 91.2" style="enable-background:new 0 0 91.1 91.2;" xml:space="preserve">
<style type="text/css">
	.st0{fill:#C1292E;}
	.st1{fill:#FFFFFF;}
</style>
<g>
	<polygon class="st0" points="59.3,2.1 62.7,8.3 69.7,6.9 71.4,13.8 78.5,14.2 78.5,21.3 85.3,23.4 83.5,30.3 89.6,34 86.2,40.3 
		91.1,45.4 86.2,50.6 89.7,56.8 83.7,60.6 85.5,67.4 78.8,69.6 78.9,76.7 71.8,77.2 70.1,84.1 63.1,82.8 59.7,89 53.3,86 48.5,91.2 
		43,86.7 37.1,90.6 32.9,84.8 26.1,87.1 23.5,80.5 16.4,81 15.5,74 8.5,72.7 9.4,65.6 3,62.7 5.6,56.1 0.1,51.6 4.2,45.9 0,40.1 
		5.5,35.6 2.8,29 9.2,26 8.3,19 15.2,17.6 16,10.6 23.1,11 25.7,4.4 32.5,6.6 36.6,0.8 42.6,4.6 48,0 52.9,5.2 	"/>
	<g>
		<path class="st1" d="M14.2,34.9l6.6-11.5l2.2,0.7l-1.3,13.2l-2.5-0.8l0.3-2.8L18,33.2l-1.3,2.5L14.2,34.9z M18.7,31.7l1.3,0.4
			l0.8-4.8L18.7,31.7z"/>
		<path class="st1" d="M23.2,37.8l4-12.4l2.5,0.8l-3.4,10.7l2.5,0.8l-0.5,1.7L23.2,37.8z"/>
		<path class="st1" d="M29.6,39.8l4-12.4l2.5,0.8l-3.4,10.7l2.5,0.8l-0.5,1.7L29.6,39.8z"/>
		<path class="st1" d="M36.6,42.1L40,31.5L38.2,31l0.6-1.9l6.1,1.9l-0.6,1.9l-1.8-0.6l-3.4,10.5L36.6,42.1z"/>
		<path class="st1" d="M42.3,43.9l4-12.4l2.5,0.8l-4,12.4L42.3,43.9z"/>
		<path class="st1" d="M46.9,45.4l4-12.4l2.6,0.8c0.8,0.3,1.5,0.6,2,0.9c0.5,0.3,0.8,0.7,1,1.1c0.2,0.4,0.3,0.9,0.2,1.4
			c0,0.5-0.2,1.1-0.4,1.9L55,43.2c-0.1,0.4-0.3,0.8-0.4,1.1s-0.3,0.6-0.5,0.9c-0.2,0.3-0.4,0.5-0.6,0.7c-0.2,0.2-0.4,0.3-0.7,0.4
			s-0.6,0.2-0.9,0.2c-0.3,0-0.7,0-1.1-0.1c-0.4-0.1-0.9-0.2-1.4-0.3L46.9,45.4z M50.1,44.4c0.2,0.1,0.4,0.1,0.6,0.2
			c0.1,0,0.3,0.1,0.4,0.1c0.1,0,0.3,0,0.3,0c0.1,0,0.2-0.1,0.2-0.2c0.1-0.1,0.2-0.2,0.2-0.3c0.1-0.1,0.1-0.3,0.2-0.5l2.1-6.7
			c0.1-0.4,0.1-0.7-0.1-0.9c-0.2-0.2-0.6-0.4-1.2-0.6L50.1,44.4z"/>
		<path class="st1" d="M59,49.2l4-12.4l5.2,1.6l-0.5,1.7l-2.7-0.8l-1.1,3.4l1.9,0.6l-0.6,1.8l-1.9-0.6L61.5,50L59,49.2z"/>
		<path class="st1" d="M65.5,51.3l4-12.4l2.7,0.9c0.6,0.2,1.1,0.4,1.6,0.7c0.4,0.3,0.8,0.6,1.1,0.9c0.3,0.4,0.4,0.8,0.5,1.3
			c0,0.5,0,1-0.2,1.6c-0.1,0.3-0.2,0.5-0.2,0.7c-0.1,0.2-0.2,0.4-0.3,0.7c-0.1,0.2-0.3,0.4-0.5,0.6c-0.2,0.2-0.4,0.3-0.7,0.4
			c-0.3,0.1-0.6,0.2-0.9,0.2c0,2.6,0,4.8,0,6.6l-2.6-0.8l0.4-6.2l-0.4-0.1L68,52.1L65.5,51.3z M70.3,44.8l0.7,0.2
			c0.2,0.1,0.4,0.1,0.6,0c0.2-0.1,0.3-0.2,0.5-0.4c0.1-0.2,0.2-0.3,0.3-0.5c0.1-0.2,0.1-0.3,0.2-0.5c0-0.1,0.1-0.3,0.1-0.5
			c0-0.2,0-0.3,0.1-0.6c0-0.2,0-0.4-0.1-0.6c-0.1-0.2-0.2-0.3-0.4-0.3l-0.8-0.3L70.3,44.8z"/>
		<path class="st1" d="M73.8,53.9l4-12.4l2.5,0.8l-4,12.4L73.8,53.9z"/>
		<path class="st1" d="M19.9,55.4l4-12.4l5.2,1.6l-0.5,1.7l-2.7-0.8l-1.1,3.4l1.9,0.6L26,51.2l-1.9-0.6l-1.8,5.5L19.9,55.4z"/>
		<path class="st1" d="M26.4,57.4l4-12.4l2.7,0.9c0.6,0.2,1.1,0.4,1.6,0.7c0.4,0.3,0.8,0.6,1.1,0.9c0.3,0.4,0.4,0.8,0.5,1.3
			c0,0.5,0,1-0.2,1.6c-0.1,0.3-0.2,0.5-0.2,0.7c-0.1,0.2-0.2,0.4-0.3,0.7c-0.1,0.2-0.3,0.4-0.5,0.6c-0.2,0.2-0.4,0.3-0.7,0.4
			c-0.3,0.1-0.6,0.2-0.9,0.2c0,2.6,0,4.8,0,6.6l-2.6-0.8l0.4-6.2l-0.4-0.1l-1.8,5.7L26.4,57.4z M31.2,51l0.7,0.2
			c0.2,0.1,0.4,0.1,0.6,0c0.2-0.1,0.3-0.2,0.5-0.4c0.1-0.2,0.2-0.3,0.3-0.5s0.1-0.3,0.2-0.5c0-0.1,0.1-0.3,0.1-0.5
			c0-0.2,0-0.3,0.1-0.6s0-0.4-0.1-0.6c-0.1-0.2-0.2-0.3-0.4-0.3l-0.8-0.3L31.2,51z"/>
		<path class="st1" d="M34,59.9l6.6-11.5l2.2,0.7l-1.3,13.2l-2.5-0.8l0.3-2.8l-1.6-0.5l-1.3,2.5L34,59.9z M38.5,56.7l1.3,0.4
			l0.8-4.8L38.5,56.7z"/>
		<path class="st1" d="M43,62.7l4-12.4l2.5,0.8l-1.5,4.7l3.4-4.1l2.8,0.9L50,56.9l0.4,8.2l-2.6-0.8L47.8,58l-0.8,1l-1.4,4.5L43,62.7
			z"/>
		<path class="st1" d="M52.7,65.8L56,55.3l-1.8-0.6l0.6-1.9l6.1,1.9l-0.6,1.9l-1.8-0.6l-3.4,10.5L52.7,65.8z"/>
		<path class="st1" d="M60.1,64.7l2.2-9.4l2.4,0.8l-3.8,8.9L60.1,64.7z M58.3,67.6l0.7-2.2l2.2,0.7l-0.7,2.2L58.3,67.6z"/>
	</g>
</g>
</svg>
