<?xml version="1.0" encoding="utf-8"?>
<!-- Generator: Adobe Illustrator 19.2.1, SVG Export Plug-In . SVG Version: 6.00 Build 0)  -->
<svg version="1.0" id="Lager_1" xmlns="http://www.w3.org/2000/svg" xmlns:xlink="http://www.w3.org/1999/xlink" x="0px" y="0px"
	 viewBox="125 229.7 589.9 136.9" style="enable-background:new 125 229.7 589.9 136.9;" xml:space="preserve">
<style type="text/css">
	.st0{fill:#74AF27;}
</style>
<g>
	<path class="st0" d="M159,330.3c-0.7,0.1-1.2-0.5-1.2-1.2l-0.4-39.1c0-0.7,0.5-1.3,1.2-1.4l16-1.6c10.4-1,15.4,6.1,15.5,14.5
		c0.1,8.8-4.8,16.7-15.2,17.8l-6.2,0.6c-0.6,0.1-1,0.6-1,1.2l0.1,7.1c0,0.7-0.5,1.3-1.2,1.4L159,330.3z M174.1,296.8l-5.7,0.6
		c-0.6,0.1-1,0.6-1,1.2l0.1,10.6c0,0.6,0.5,1,1,1l5.7-0.6c4.2-0.4,5.7-3.4,5.7-7C179.9,299.2,178.3,296.3,174.1,296.8z"/>
	<path class="st0" d="M192.5,286.5c0-0.7,0.5-1.3,1.2-1.4l17.9-1.8c10-1,14.7,5.5,14.8,13.8c0.1,5.5-2,10.9-6.7,14
		c-0.5,0.3-0.6,1-0.3,1.4l7.3,9.9c0.3,0.5,0,1.1-0.5,1.1l-9.6,0.9c-0.8,0.1-1.5-0.3-1.9-0.9l-6.2-8.6c-0.4-0.5-1-0.8-1.6-0.7
		l-3.1,0.3c-0.6,0.1-1,0.6-1,1.2l0.1,8.8c0,0.7-0.5,1.3-1.2,1.4l-7.6,0.7c-0.7,0.1-1.2-0.5-1.2-1.2L192.5,286.5z M211.1,293.1
		l-7.6,0.7c-0.6,0.1-1,0.6-1,1.2l0.1,9c0,0.6,0.5,1,1,1l7.6-0.7c4-0.4,5.5-3.2,5.5-6.1C216.7,294.9,215.1,292.7,211.1,293.1z"/>
	<path class="st0" d="M228,302.5c-0.1-11.9,9.2-22.6,20.5-23.7c11.4-1.1,20.8,7.7,21,19.6c0.1,11.9-9.1,22.6-20.5,23.7
		C237.7,323.3,228.1,314.5,228,302.5z M238.1,301.5c0.1,6.3,4.9,10.9,10.7,10.3c6-0.6,10.6-6.1,10.5-12.4s-4.7-10.9-10.7-10.3
		C242.7,289.7,238,295.2,238.1,301.5z"/>
	<path class="st0" d="M270.3,287.9c-0.7,0.1-1.2-0.5-1.2-1.2l-0.1-7.8c0-0.7,0.5-1.3,1.2-1.4l32-3.2c0.7-0.1,1.2,0.5,1.2,1.2
		l0.1,7.8c0,0.7-0.5,1.3-1.2,1.4l-10,1c-0.6,0.1-1,0.6-1,1.2l0.3,29c0,0.7-0.5,1.3-1.2,1.4l-7.6,0.8c-0.7,0.1-1.2-0.5-1.2-1.2
		l-0.3-29c0-0.6-0.5-1-1-1L270.3,287.9z"/>
	<path class="st0" d="M307.3,315.6c-0.7,0.1-1.2-0.5-1.2-1.2l-0.4-39.1c0-0.7,0.5-1.3,1.2-1.4l27.6-2.7c0.7-0.1,1.2,0.5,1.2,1.2
		l0.1,7.8c0,0.7-0.5,1.3-1.2,1.4l-17.8,1.8c-0.6,0.1-1,0.6-1,1.2v3.8c0,0.6,0.5,1,1,1L331,288c0.7-0.1,1.2,0.5,1.2,1.2l0.1,7.1
		c0,0.7-0.5,1.3-1.2,1.4l-14.2,1.4c-0.6,0.1-1,0.6-1,1.2v3.2c0,0.6,0.5,1,1,1l17.8-1.8c0.7-0.1,1.2,0.5,1.2,1.2l0.1,7.8
		c0,0.7-0.5,1.3-1.2,1.4L307.3,315.6z"/>
	<path class="st0" d="M339.3,271.9c0-0.7,0.5-1.3,1.2-1.4l7.6-0.8c0.7-0.1,1.2,0.5,1.2,1.2l0.4,39.1c0,0.7-0.5,1.3-1.2,1.4l-7.6,0.8
		c-0.7,0.1-1.2-0.5-1.2-1.2L339.3,271.9z"/>
	<path class="st0" d="M364.5,308.6c0,0.7-0.5,1.3-1.2,1.4l-7.6,0.8c-0.7,0.1-1.2-0.5-1.2-1.2l-0.4-39.1c0-0.7,0.5-1.3,1.2-1.4
		l6.1-0.6c0.8-0.1,1.5,0.2,2,0.8l16.3,19.9c0.2,0.3,0.6,0.1,0.6-0.3l-0.2-21c0-0.7,0.5-1.3,1.2-1.4l7.6-0.7c0.7-0.1,1.2,0.5,1.2,1.2
		l0.4,39.1c0,0.7-0.5,1.3-1.2,1.4l-6.1,0.6c-0.8,0.1-1.5-0.2-2-0.8l-16.3-19.8c-0.2-0.3-0.6-0.1-0.6,0.3L364.5,308.6z"/>
	<path class="st0" d="M414,289.5c-0.7,0.1-1.2-0.5-1.2-1.2l-0.1-6.3c0-0.7,0.5-1.3,1.2-1.4l16.4-1.6c0.7-0.1,1.2,0.5,1.2,1.2
		l0.2,21.8c0,0.7-0.5,1.3-1.2,1.4l-5.5,0.5c-0.7,0.1-1.2-0.5-1.2-1.2v-1.5c0-0.3-0.4-0.4-0.6-0.2c-2,2.7-5.6,4.4-9.2,4.8
		c-11.3,1.1-20.8-7.7-21-19.6c-0.1-11.9,9.2-22.6,20.5-23.7c6.3-0.6,12,1.9,15.9,6.1c0.4,0.5,0.3,1.3-0.2,1.7l-6.1,5
		c-0.6,0.5-1.3,0.5-1.9,0c-1.9-1.8-4.6-2.9-7.6-2.6c-5.9,0.6-10.6,6.1-10.5,12.4s4.8,10.9,10.7,10.3c3.3-0.3,6.2-2.3,8-5.1
		c0.1-0.2,0.3-0.7,0.3-0.9v-0.2c0-0.3-0.3-0.5-0.5-0.5L414,289.5z"/>
	<path class="st0" d="M435.2,262.4c0-0.7,0.5-1.3,1.2-1.4l17.9-1.8c10-1,14.7,5.5,14.8,13.8c0.1,5.5-2,10.9-6.7,14
		c-0.5,0.3-0.6,1-0.3,1.4l7.3,9.9c0.3,0.5,0,1.1-0.5,1.1l-9.6,0.9c-0.8,0.1-1.5-0.3-1.9-0.9l-6.2-8.6c-0.4-0.5-1-0.8-1.6-0.7
		l-3.1,0.3c-0.6,0.1-1,0.6-1,1.2l0.1,8.8c0,0.7-0.5,1.3-1.2,1.4l-7.6,0.7c-0.7,0.1-1.2-0.5-1.2-1.2L435.2,262.4z M453.8,269
		l-7.6,0.7c-0.6,0.1-1,0.6-1,1.2l0.1,9c0,0.6,0.5,1,1,1l7.6-0.7c4-0.4,5.5-3.2,5.5-6.1C459.3,270.9,457.8,268.6,453.8,269z"/>
	<path class="st0" d="M470.7,278.5c-0.1-11.9,9.2-22.6,20.5-23.7c11.4-1.1,20.8,7.7,21,19.6c0.1,11.9-9.1,22.6-20.5,23.7
		C480.4,299.2,470.8,290.4,470.7,278.5z M480,248.8c0-2.8,2.1-5.3,4.8-5.6c2.7-0.3,4.8,1.9,4.9,4.7c0,2.9-2.1,5.5-4.8,5.7
		C482.2,253.8,480,251.7,480,248.8z M480.8,277.5c0.1,6.3,4.9,10.9,10.7,10.3c6-0.6,10.6-6.1,10.5-12.4s-4.7-10.9-10.7-10.3
		C485.4,265.7,480.7,271.2,480.8,277.5z M492.6,247.5c0-2.8,2.1-5.3,4.8-5.6c2.7-0.3,4.8,1.9,4.9,4.7c0,2.9-2.1,5.5-4.8,5.7
		C494.8,252.6,492.6,250.4,492.6,247.5z"/>
	<path class="st0" d="M512.9,263.8c-0.7,0.1-1.2-0.5-1.2-1.2l-0.1-7.8c0-0.7,0.5-1.3,1.2-1.4l32-3.2c0.7-0.1,1.2,0.5,1.2,1.2
		l0.1,7.8c0,0.7-0.5,1.3-1.2,1.4l-10,1c-0.6,0.1-1,0.6-1,1.2l0.3,29c0,0.7-0.5,1.3-1.2,1.4l-7.6,0.8c-0.7,0.1-1.2-0.5-1.2-1.2
		l-0.3-29c0-0.6-0.5-1-1-1L512.9,263.8z"/>
	<path class="st0" d="M543.6,286.3c0-3.7,2.8-7,6.2-7.4c3.5-0.3,6.3,2.4,6.4,6.1c0,3.7-2.8,7-6.2,7.4
		C546.5,292.8,543.6,290,543.6,286.3z"/>
	<path class="st0" d="M558.1,279.7c-0.1-0.7,0.6-1.6,1.3-1.6l6.8-0.7c1.2-0.1,1.4,0.1,2,1.2c0.7,1.3,2.8,2.4,6.3,2.1
		c3.8-0.4,4.9-1.8,4.9-3.1c0-1.8-2-2.6-6.7-3.9c-6.2-1.6-14.4-4-14.5-12.6c-0.1-8,6.2-13.6,15.1-14.5c9.1-0.9,15.5,3.5,16.1,11
		c0.1,0.7-0.6,1.6-1.3,1.6l-7,0.7c-1,0.1-1.4-0.3-1.7-1.3c-0.6-1.7-2.5-3.1-5.8-2.8c-3.4,0.3-4.7,1.9-4.7,3.3c0,1.7,1.8,2.3,6.5,3.6
		c5.4,1.5,14.7,4,14.8,13.1c0.1,8.1-6.5,13.1-15.4,13.9C565.9,290.8,558.9,287.3,558.1,279.7z"/>
	<path class="st0" d="M594.7,287.1c-0.7,0.1-1.2-0.5-1.2-1.2l-0.4-39.1c0-0.7,0.5-1.3,1.2-1.4l27.6-2.7c0.7-0.1,1.2,0.5,1.2,1.2
		l0.1,7.8c0,0.7-0.5,1.3-1.2,1.4l-17.8,1.8c-0.6,0.1-1,0.6-1,1.2v3.8c0,0.6,0.5,1,1,1l14.2-1.4c0.7-0.1,1.2,0.5,1.2,1.2l0.1,7.1
		c0,0.7-0.5,1.3-1.2,1.4l-14.2,1.4c-0.6,0.1-1,0.6-1,1.2v3.2c0,0.6,0.5,1,1,1l17.8-1.8c0.7-0.1,1.2,0.5,1.2,1.2l0.1,7.8
		c0,0.7-0.5,1.3-1.2,1.4L594.7,287.1z"/>
</g>
</svg>
